# Blender v2.79 (sub 0) OBJ File: 'cube.blend'
# www.blender.org
mtllib cube.mtl
o Cube
v 1.000000 -1.000000 -1.000000
v 1.000000 -1.000000 1.000000
v -1.000000 -1.000000 1.000000
v -1.000000 -1.000000 -1.000000
v 1.000000 1.000000 -0.999999
v 0.999999 1.000000 1.000001
v -1.000000 1.000000 1.000000
v -1.000000 1.000000 -1.000000
vt 1.001936 0.000160
vt 0.001936 1.000160
vt 0.001936 0.000160
vt 0.001936 0.000160
vt 1.001936 1.000160
vt 0.001936 1.000160
vt 0.001936 0.000160
vt 1.001936 1.000160
vt 0.001936 1.000160
vt 0.001936 1.000160
vt 1.001936 0.000160
vt 1.001936 1.000160
vt 1.001936 1.000160
vt 1.001936 0.000160
vt 0.000100 0.000100
vt 0.999900 0.999900
vt 0.000100 0.999900
vt 1.001936 1.000160
vt 1.001936 0.000160
vt 1.001936 0.000160
vt 0.001936 0.000160
vt 0.999900 0.000100
vn 0.5773 -0.5773 0.5773
vn -0.5773 -0.5773 -0.5773
vn 0.5773 -0.5773 -0.5773
vn -0.5773 0.5773 -0.5773
vn 0.5773 0.5773 0.5773
vn 0.5773 0.5773 -0.5773
vn -0.5773 -0.5773 0.5773
vn -0.5773 0.5773 0.5773
usemtl Material
s 1
f 2/1/1 4/2/2 1/3/3
f 8/4/4 6/5/5 5/6/6
f 5/7/6 2/8/1 1/9/3
f 3/10/7 8/11/4 4/12/2
f 1/13/3 8/4/4 5/14/6
f 3/15/7 6/16/5 7/17/8
f 2/1/1 3/18/7 4/2/2
f 8/4/4 7/19/8 6/5/5
f 5/7/6 6/20/5 2/8/1
f 3/10/7 7/21/8 8/11/4
f 1/13/3 4/2/2 8/4/4
f 3/15/7 2/22/1 6/16/5
